<svg xmlns="http://www.w3.org/2000/svg" width="210.428" height="227.556" class="icon" viewBox="0 0 1077.394 1165.084"><path fill="#dbd22d" d="M703.463 441.977h-334.16c-55.8 0-101.192 45.395-101.192 101.194v87.722c0 55.8 45.392 101.192 101.191 101.192h334.163c55.8 0 101.196-45.393 101.196-101.192v-87.722c-.002-55.8-45.4-101.194-101.198-101.194Zm85.256 188.916c0 47.006-38.248 85.25-85.254 85.25H369.302c-47.006 0-85.249-38.244-85.249-85.25v-87.722c0-47.007 38.243-85.252 85.25-85.252h334.162c47.006 0 85.254 38.245 85.254 85.252z" style="fill:#0a9642;fill-opacity:1"/><path fill="#dbd22d" d="M703.465 476.52H369.302c-36.752 0-66.655 29.898-66.655 66.648v87.723c0 36.752 29.903 66.653 66.655 66.653h334.163c36.753 0 66.649-29.9 66.649-66.653v-87.723c.002-36.75-29.896-66.648-66.649-66.648z" style="fill:#0a9642;fill-opacity:1"/><path fill="#dbd22d" d="M418.104 576.983h-12.145a15.412 15.412 0 0 1-15.396-15.396v-.624c0-8.492 6.906-15.4 15.396-15.4h12.145c8.49 0 15.396 6.908 15.396 15.4h15.943c0-17.28-14.059-31.343-31.34-31.343H405.96c-17.28 0-31.339 14.06-31.339 31.343v.624c0 17.28 14.059 31.339 31.34 31.339h12.144c8.49 0 15.396 6.906 15.396 15.396 0 8.49-6.906 15.396-15.396 15.396h-12.145a15.412 15.412 0 0 1-15.396-15.396H374.62c0 17.28 14.059 31.339 31.34 31.339h12.144c17.28 0 31.339-14.058 31.339-31.339 0-17.28-14.059-31.339-31.34-31.339zm117.373-30.513h19.529v-15.942h-19.53c-29.534 0-53.561 24.027-53.561 53.562 0 29.534 24.027 53.562 53.562 53.562h19.529v-15.943h-19.53c-20.74 0-37.619-16.878-37.619-37.62 0-20.741 16.876-37.619 37.62-37.619zm148.048-16.361-36.446 55.23-36.447-55.23-14.623 4.39v105.064h15.94v-78.511l28.477 43.151h13.305l28.476-43.151v78.511h15.943V534.498ZM415.769 89.134c-98.12 23.679-186.384 75.566-255.26 150.043l11.707 10.825c66.733-72.16 152.242-122.43 247.29-145.374ZM57.635 456.058l-15.371-4.215c-11.992 43.78-18.075 89.266-18.075 135.193 0 44.79 5.796 89.227 17.224 132.085l15.403-4.11c-11.068-41.517-16.684-84.573-16.684-127.975 0-44.505 5.889-88.571 17.503-130.978zM170.348 922.05l-11.76 10.758c68.694 75.11 156.963 127.54 255.26 151.63l3.798-15.485C322.42 1045.618 236.91 994.82 170.348 922.05Zm735.073-3.339c-67.013 74.577-153.566 126.53-250.304 150.242l3.797 15.485c99.859-24.48 189.201-78.104 258.365-155.073zm123.667-472.01-15.33 4.377c12.522 43.904 18.873 89.648 18.873 135.96 0 41.752-5.174 83.137-15.371 122.996l15.444 3.955c10.529-41.154 15.87-83.864 15.87-126.951 0-47.791-6.552-95.007-19.486-140.336zM657.001 89.135l-3.748 15.496c93.573 22.61 178.064 71.782 244.347 142.2l11.603-10.93C840.8 163.226 753.589 112.474 657 89.134ZM528.414 317.092h15.942v-15.943h-15.942zm0 63.77h15.942v-15.943h-15.942zm0 31.883h15.942v-15.943h-15.942zm0-63.768h15.942v-15.943h-15.942zm0-127.54h15.942v-15.943h-15.942zm0 63.77h15.942v-15.943h-15.942zm0-111.598v15.942h15.942V173.61zm0 79.713h15.942v-15.943h-15.942zm0 676.58h15.942v-15.943h-15.942zm0 31.882h15.942v-15.943h-15.942zm0 31.885h15.942v-15.942h-15.942zm0-95.653h15.942v-15.942h-15.942zm0-143.483v15.943h15.942v-15.943zm0 47.828h15.942v-15.943h-15.942zm0 31.885h15.942v-15.943h-15.942zm0 31.885h15.942V850.19h-15.942zm281.39-449.493 8.117 13.722 13.722-8.115-8.117-13.721zm-27.448 16.227 8.117 13.722 13.722-8.115-8.117-13.721zm96.07-56.798-13.726 8.11 8.105 13.727 13.726-8.113zm-41.174 24.342 8.117 13.722 13.721-8.115-8.116-13.722zm-655.97 382.728 8.117 13.722 13.722-8.115-8.117-13.722zm27.448-16.227 8.117 13.722 13.721-8.115-8.117-13.722zm27.448-16.23 8.117 13.722 13.721-8.114-8.117-13.722zm41.174-24.34-13.727 8.11 8.106 13.725 13.726-8.11zm531.699 18.358 14.013 7.607 7.607-14.01-14.013-7.607zm63.65 16.416-7.608 14.01 14.013 7.61 7.607-14.013zm-91.669-31.632 14.013 7.607 7.607-14.01-14.013-7.608zm56.042 30.426 14.007 7.607 7.607-14.006-14.006-7.607zM175.516 400.687l14.013 7.607 7.607-14.013-14.013-7.607zm28.019 15.216 14.013 7.605 7.607-14.013-14.013-7.605zm63.652 16.418-7.608 14.011 14.013 7.61 7.607-14.011zm-35.629-1.208 14.006 7.61 7.607-14.006-14.006-7.61zM536.385 0c-40.473 0-73.4 32.927-73.4 73.4 0 40.478 32.927 73.405 73.4 73.405 40.473 0 73.4-32.927 73.4-73.405 0-40.473-32.927-73.4-73.4-73.4Zm0 130.863c-31.683 0-57.46-25.778-57.46-57.463 0-31.682 25.777-57.457 57.46-57.457 31.682 0 57.46 25.777 57.46 57.457 0 31.687-25.778 57.463-57.46 57.463z" style="fill:#0a9642;fill-opacity:1"/><path fill="#dbd22d" d="M536.383 34.543c-21.427 0-38.86 17.43-38.86 38.86 0 21.429 17.433 38.86 38.86 38.86 21.426 0 38.86-17.431 38.86-38.86 0-21.427-17.434-38.86-38.86-38.86zM536.385 1018.28c-40.473 0-73.4 32.927-73.4 73.404 0 40.473 32.927 73.4 73.4 73.4 40.473 0 73.4-32.927 73.4-73.4 0-40.478-32.927-73.405-73.4-73.405zm0 130.862c-31.683 0-57.46-25.778-57.46-57.458 0-31.685 25.777-57.462 57.46-57.462 31.682 0 57.46 25.777 57.46 57.462 0 31.683-25.778 57.458-57.46 57.458z" style="fill:#0a9642;fill-opacity:1"/><path fill="#dbd22d" d="M536.383 1052.822c-21.427 0-38.86 17.43-38.86 38.86 0 21.429 17.433 38.86 38.86 38.86 21.426 0 38.86-17.431 38.86-38.86 0-21.43-17.434-38.86-38.86-38.86zM1044.082 299.825a73.46 73.46 0 0 0-64.335-37.972 73.512 73.512 0 0 0-35.387 9.136c-17.167 9.466-29.623 25.054-35.07 43.889-5.444 18.832-3.23 38.661 6.237 55.828a73.462 73.462 0 0 0 64.334 37.975c12.31 0 24.546-3.161 35.387-9.137 35.44-19.54 48.378-64.277 28.834-99.72zm-36.534 85.761a57.506 57.506 0 0 1-27.687 7.154 57.526 57.526 0 0 1-50.376-29.727c-7.412-13.442-9.143-28.964-4.879-43.707 4.26-14.743 14.013-26.945 27.452-34.354a57.506 57.506 0 0 1 27.687-7.154 57.526 57.526 0 0 1 50.376 29.725c15.299 27.744 5.17 62.765-22.573 78.063z" style="fill:#0a9642;fill-opacity:1"/><path fill="#dbd22d" d="M1013.84 316.507a38.935 38.935 0 0 0-34.097-20.111c-6.581 0-12.875 1.629-18.703 4.842a38.616 38.616 0 0 0-18.569 23.236 38.566 38.566 0 0 0 3.307 29.56 38.912 38.912 0 0 0 34.085 20.106c6.586 0 12.875-1.63 18.703-4.842a38.607 38.607 0 0 0 18.569-23.236 38.61 38.61 0 0 0-3.295-29.555zM157.239 794.378a73.462 73.462 0 0 0-64.335-37.974 73.519 73.519 0 0 0-35.387 9.136c-35.44 19.545-48.372 64.282-28.834 99.722a73.46 73.46 0 0 0 64.335 37.972c12.31 0 24.546-3.158 35.387-9.136 17.167-9.467 29.623-25.054 35.07-43.889 5.446-18.835 3.23-38.664-6.236-55.83zm-9.082 51.403c-4.26 14.743-14.013 26.945-27.452 34.354a57.48 57.48 0 0 1-27.687 7.154 57.526 57.526 0 0 1-50.376-29.725c-15.294-27.744-5.168-62.763 22.573-78.066a57.506 57.506 0 0 1 27.687-7.154 57.526 57.526 0 0 1 50.376 29.728c7.412 13.442 9.146 28.963 4.879 43.709z" style="fill:#0a9642;fill-opacity:1"/><path fill="#dbd22d" d="M126.992 811.051a38.91 38.91 0 0 0-34.086-20.107c-6.585 0-12.88 1.63-18.707 4.843a38.593 38.593 0 0 0-18.562 23.233 38.593 38.593 0 0 0 3.3 29.56 38.912 38.912 0 0 0 34.085 20.109c6.586 0 12.88-1.63 18.703-4.843 18.764-10.347 25.614-34.03 15.267-52.795zM1015.248 759.976a73.519 73.519 0 0 0-35.387-9.136 73.462 73.462 0 0 0-64.334 37.975c-9.467 17.166-11.683 36.995-6.238 55.828 5.45 18.835 17.904 34.422 35.071 43.889a73.519 73.519 0 0 0 35.387 9.136 73.464 73.464 0 0 0 64.335-37.972c19.538-35.44 6.606-80.177-28.834-99.72zM1030.121 852a57.526 57.526 0 0 1-50.376 29.725c-9.626 0-19.201-2.475-27.687-7.154-13.441-7.411-23.192-19.61-27.452-34.354-4.267-14.743-2.533-30.265 4.879-43.707a57.517 57.517 0 0 1 50.376-29.727c9.626 0 19.201 2.475 27.687 7.154 27.743 15.3 37.867 50.32 22.573 78.063z" style="fill:#0a9642;fill-opacity:1"/><path fill="#dbd22d" d="M1017.135 813.461a38.598 38.598 0 0 0-18.573-23.236 38.284 38.284 0 0 0-18.699-4.842 38.923 38.923 0 0 0-34.09 20.109 38.577 38.577 0 0 0-3.3 29.557 38.61 38.61 0 0 0 18.57 23.234 38.339 38.339 0 0 0 18.707 4.842 38.912 38.912 0 0 0 34.085-20.107 38.598 38.598 0 0 0 3.3-29.557zM128.405 276.553a73.519 73.519 0 0 0-35.387-9.137 73.462 73.462 0 0 0-64.335 37.975c-19.544 35.442-6.606 80.175 28.834 99.717a73.519 73.519 0 0 0 35.387 9.136 73.464 73.464 0 0 0 64.335-37.972c19.544-35.444 6.606-80.181-28.834-99.72zm14.873 92.023a57.526 57.526 0 0 1-50.376 29.726c-9.626 0-19.201-2.476-27.687-7.154-27.743-15.299-37.874-50.315-22.573-78.061a57.521 57.521 0 0 1 50.376-29.728c9.628 0 19.201 2.476 27.687 7.154 27.748 15.297 37.874 50.315 22.573 78.063z" style="fill:#0a9642;fill-opacity:1"/><path fill="#dbd22d" d="M111.728 306.802a38.332 38.332 0 0 0-18.708-4.843 38.907 38.907 0 0 0-34.085 20.107c-10.35 18.767-3.498 42.448 15.262 52.793a38.339 38.339 0 0 0 18.707 4.842h.005a38.905 38.905 0 0 0 34.08-20.106c10.35-18.765 3.5-42.449-15.261-52.793zM379.119 61.01l-8.333 13.59 40.209 24.637-27.013 38.357 13.036 9.18 36.8-52.247zm288.998 1012.026 22.871-40.96-13.92-7.776-31.152 55.8 57.89 27.64 6.87-14.386zm229.785-887.323-2.004 47.113-46.65-4.98-1.69 15.855 63.545 6.779 2.73-64.09zM219.894 919.57l-63.905-.13 3.96 64.03 15.91-.985-2.91-47.066 46.913.094zm849.663-241.87-41.065 23.192-20.416-42.235-14.355 6.938 27.817 57.533 55.856-31.546zM52.27 442.531 0 479.719l9.236 12.989 38.426-27.336 24.707 39.881 13.556-8.397z" style="fill:#0a9642;fill-opacity:1"/></svg>